HIERARCHY
ROOT Hips
{
	OFFSET 0.000000 0.000000 0.000000
	CHANNELS 6 Xposition Yposition Zposition Xrotation Yrotation Zrotation
	JOINT LeftUpLeg_virtual
	{
		OFFSET 0.000000 0.000000 0.000000
		CHANNELS 3 Xrotation Yrotation Zrotation
		JOINT LeftUpLeg
		{
			OFFSET 13.026900 -6.336304 -1.092800
			CHANNELS 3 Xrotation Yrotation Zrotation
			JOINT LeftLeg
			{
				OFFSET 0.524474 -46.096886 9.782700
				CHANNELS 3 Xrotation Yrotation Zrotation
				JOINT LeftFoot
				{
					OFFSET -0.524474 -53.427422 -12.948200
					CHANNELS 3 Xrotation Yrotation Zrotation
					JOINT LeftToeBase
					{
						OFFSET 0.192200 -14.009700 16.364100
						CHANNELS 3 Xrotation Yrotation Zrotation
						JOINT LeftToe_End
						{
							OFFSET -1.784700 -0.561700 9.474800
							CHANNELS 3 Xrotation Yrotation Zrotation
							End Site
							{
								OFFSET 0 0 0
							}
						}
					}
				}
			}
		}
	}
	JOINT RightUpLeg_virtual
	{
		OFFSET 0.000000 0.000000 0.000000
		CHANNELS 3 Xrotation Yrotation Zrotation
		JOINT RightUpLeg
		{
			OFFSET -12.883000 -6.336304 -1.092800
			CHANNELS 3 Xrotation Yrotation Zrotation
			JOINT RightLeg
			{
				OFFSET -0.524587 -46.096825 9.782800
				CHANNELS 3 Xrotation Yrotation Zrotation
				JOINT RightFoot
				{
					OFFSET 0.524587 -53.427383 -12.948300
					CHANNELS 3 Xrotation Yrotation Zrotation
					JOINT RightToeBase
					{
						OFFSET -0.192200 -14.009700 16.364100
						CHANNELS 3 Xrotation Yrotation Zrotation
						JOINT RightToe_End
						{
							OFFSET 1.784700 -0.561700 9.474800
							CHANNELS 3 Xrotation Yrotation Zrotation
							End Site
							{
								OFFSET 0 0 0
							}
						}
					}
				}
			}
		}
	}
	JOINT Spine_virtual
	{
		OFFSET 0.000000 0.000000 0.000000
		CHANNELS 3 Xrotation Yrotation Zrotation
		JOINT Spine
		{
			OFFSET 0.072000 7.257294 -0.789700
			CHANNELS 3 Xrotation Yrotation Zrotation
			JOINT Spine1
			{
				OFFSET 0.000000 12.508769 -0.658067
				CHANNELS 3 Xrotation Yrotation Zrotation
				JOINT Spine1_split
				{
					OFFSET 0.000000 12.508769 -0.658067
					CHANNELS 3 Xrotation Yrotation Zrotation
					JOINT Spine2
					{
						OFFSET 0.000000 12.508769 -0.658067
						CHANNELS 3 Xrotation Yrotation Zrotation
						JOINT Neck_virtual
						{
							OFFSET 0.000000 0.000000 0.000000
							CHANNELS 3 Xrotation Yrotation Zrotation
							JOINT Neck
							{
								OFFSET 0.000000 14.033295 7.520400
								CHANNELS 3 Xrotation Yrotation Zrotation
								JOINT Head
								{
									OFFSET 0.000000 8.198502 5.703100
									CHANNELS 3 Xrotation Yrotation Zrotation
									JOINT HeadTop_End
									{
										OFFSET 0.000000 17.760803 13.332701
										CHANNELS 3 Xrotation Yrotation Zrotation
										End Site
										{
											OFFSET 0 0 0
										}
									}
								}
							}
						}
						JOINT LeftShoulder_virtual
						{
							OFFSET 0.000000 0.000000 0.000000
							CHANNELS 3 Xrotation Yrotation Zrotation
							JOINT LeftShoulder
							{
								OFFSET 6.292450 5.785301 -0.669000
								CHANNELS 3 Xrotation Yrotation Zrotation
								JOINT LeftShoulder_split
								{
									OFFSET 6.292450 5.785301 -0.669000
									CHANNELS 3 Xrotation Yrotation Zrotation
									JOINT LeftArm
									{
										OFFSET 13.907140 -6.093903 1.965100
										CHANNELS 3 Xrotation Yrotation Zrotation
										JOINT LeftForeArm
										{
											OFFSET 34.140198 0.000000 0.000000
											CHANNELS 3 Xrotation Yrotation Zrotation
											JOINT LeftHand
											{
												OFFSET 40.960209 0.000000 0.000000
												CHANNELS 3 Xrotation Yrotation Zrotation
												End Site
												{
													OFFSET 0 0 0
												}
											}
										}
									}
								}
							}
						}
						JOINT RightShoulder_virtual
						{
							OFFSET 0.000000 0.000000 0.000000
							CHANNELS 3 Xrotation Yrotation Zrotation
							JOINT RightShoulder
							{
								OFFSET -6.292450 5.785301 -0.669000
								CHANNELS 3 Xrotation Yrotation Zrotation
								JOINT RightShoulder_split
								{
									OFFSET -6.292450 5.785301 -0.669000
									CHANNELS 3 Xrotation Yrotation Zrotation
									JOINT RightArm
									{
										OFFSET -13.907140 -6.093903 1.965100
										CHANNELS 3 Xrotation Yrotation Zrotation
										JOINT RightForeArm
										{
											OFFSET -34.140198 0.000000 0.000000
											CHANNELS 3 Xrotation Yrotation Zrotation
											JOINT RightHand
											{
												OFFSET -40.960209 0.000000 0.000000
												CHANNELS 3 Xrotation Yrotation Zrotation
												End Site
												{
													OFFSET 0 0 0
												}
											}
										}
									}
								}
							}
						}
					}
				}
			}
		}
	}
}
MOTION
Frames: 5
Frame Time: 0.03333333
-10.371298 87.640793 19.495804 0.000000 0.000000 0.000000 8.189643 35.140668 -2.910724 -73.729249 -7.584724 -28.983839 74.950767 -38.792404 3.810555 9.455985 9.466424 4.147007 2.583897 -0.430062 1.109121 0.000000 0.000000 0.000000 9.576440 37.676092 -3.946747 5.392948 -34.700885 -4.607883 59.316634 12.851440 -7.723929 -23.594405 -2.239463 2.370803 -36.297726 -3.436422 3.793021 0.000000 0.000000 0.000000 10.795991 42.839513 -5.617222 6.470755 12.259494 0.223336 3.125068 16.340123 0.062910 1.033031 1.816780 0.605120 0.000000 0.000000 0.000000 2.709885 15.397562 -0.403936 18.724072 -31.629879 3.888819 -22.976760 -36.370136 -1.504641 0.000000 0.000000 0.000000 2.648855 16.331382 -0.837833 2.127307 -4.642614 -6.148370 -3.781173 -8.771823 -2.441969 -33.235588 9.949172 -25.710867 50.461386 -3.127413 17.619281 0.000000 0.000000 0.000000 3.837670 16.355089 -1.045878 0.516803 8.045218 -16.332531 -4.980816 4.407084 2.953094 -18.596034 -20.139062 3.888841 -33.331286 29.513302 9.879437 0.000000 0.000000 0.000000 
-9.734723 87.901993 19.365044 0.000000 0.000000 0.000000 8.717338 33.336886 -3.013323 -73.869022 -7.133076 -27.510224 75.413546 -37.945895 4.193429 9.479122 8.844399 3.851420 2.791718 -0.364896 1.184067 0.000000 0.000000 0.000000 10.380026 36.149507 -4.000704 4.956471 -33.184775 -5.365994 58.778887 12.608757 -7.432344 -23.838130 -2.235000 2.028756 -35.494666 -3.299250 3.837655 0.000000 0.000000 0.000000 11.237171 41.634005 -6.095217 6.511844 11.961849 0.305393 3.325125 15.877874 -0.206319 1.018325 1.473790 0.710167 0.000000 0.000000 0.000000 2.795859 14.932674 -0.672543 17.651449 -31.253576 3.078285 -22.694152 -37.466668 -0.531105 0.000000 0.000000 0.000000 2.862843 15.839523 -1.228163 2.050107 -4.864955 -6.063227 -4.714826 -8.627870 -1.715304 -27.338701 13.541227 -25.018232 50.511868 -3.059900 19.055323 0.000000 0.000000 0.000000 3.924908 15.972696 -1.218840 0.310278 6.985143 -16.647073 -5.492799 3.490561 2.388482 -23.169940 -18.265201 4.844441 -32.525965 30.908191 12.335412 0.000000 0.000000 0.000000 
-8.982966 88.320473 19.240154 0.000000 0.000000 0.000000 9.034161 30.411185 -3.058692 -73.213221 -6.719952 -25.441956 75.128584 -36.607003 4.169844 8.818064 8.285148 3.849911 2.600881 -0.283896 1.246305 0.000000 0.000000 0.000000 10.792805 33.521930 -3.914896 4.722371 -31.043616 -6.374822 57.610836 12.809432 -7.166520 -23.333232 -2.181604 2.400900 -35.346127 -3.182333 3.893662 0.000000 0.000000 0.000000 11.148752 39.398027 -6.257929 6.759785 11.516486 0.465856 3.574764 15.394498 -0.407449 0.636963 1.585010 0.583747 0.000000 0.000000 0.000000 2.993927 14.484266 -0.852171 15.910734 -30.718964 2.106694 -22.431832 -38.196378 0.489573 0.000000 0.000000 0.000000 3.055325 15.412897 -1.491331 1.826592 -4.588020 -5.592067 -5.591029 -8.876355 -1.140774 -20.726936 17.494288 -24.868422 50.515324 -2.083302 20.159840 0.000000 0.000000 0.000000 3.997916 15.610291 -1.321941 -0.203508 5.415529 -17.620817 -4.929398 2.945043 1.775149 -30.398754 -14.177757 6.733817 -30.775412 31.219323 13.810485 0.000000 0.000000 0.000000 
-8.079016 88.872520 19.094440 0.000000 0.000000 0.000000 9.091554 26.564052 -2.921634 -71.774934 -6.318896 -22.921328 74.125816 -34.914192 3.768665 7.636303 7.615599 4.076012 1.750194 -0.220411 1.357912 0.000000 0.000000 0.000000 10.801268 29.908879 -3.643466 4.587752 -28.450187 -7.707194 56.132492 13.475173 -6.983272 -22.329939 -2.001447 3.717243 -35.880514 -3.127220 3.956829 0.000000 0.000000 0.000000 10.568405 35.941142 -5.968623 7.222712 10.968124 0.649268 3.842971 14.914198 -0.531247 0.436929 1.851183 0.523107 0.000000 0.000000 0.000000 3.183739 14.057455 -0.960840 13.834479 -29.827108 1.227399 -22.271249 -38.132888 1.347767 0.000000 0.000000 0.000000 3.187225 15.024521 -1.639111 1.489586 -3.765215 -4.838709 -6.421779 -9.254710 -0.957998 -13.401422 21.579388 -25.700410 50.330213 -0.408034 21.050339 0.000000 0.000000 0.000000 4.119647 15.307659 -1.383179 -0.892167 3.676309 -18.683574 -3.587000 2.846247 1.314772 -38.636201 -7.916382 9.989859 -27.720123 29.850075 13.703218 0.000000 0.000000 0.000000 
-7.025305 89.590408 18.753540 0.000000 0.000000 0.000000 8.958994 21.795641 -2.556871 -69.700291 -5.899047 -20.138374 72.731467 -32.969439 3.199611 6.093323 6.688028 4.617064 0.660839 -0.191725 1.517896 0.000000 0.000000 0.000000 10.428548 25.446527 -3.136840 4.561584 -25.668471 -9.321640 54.689260 14.189749 -6.815241 -21.533322 -1.797640 5.218228 -36.152280 -3.132392 4.081397 0.000000 0.000000 0.000000 9.671727 31.358901 -5.269627 7.888727 10.391752 0.806025 4.057360 14.413641 -0.572391 0.285679 2.306222 0.681682 0.000000 0.000000 0.000000 3.252063 13.616548 -1.000151 11.789411 -28.427930 0.661397 -22.250381 -36.917046 1.789143 0.000000 0.000000 0.000000 3.203443 14.627175 -1.689017 1.088431 -2.500414 -4.058787 -6.879785 -9.387141 -1.076333 -5.212342 25.479408 -28.042916 49.875906 1.322726 21.977570 0.000000 0.000000 0.000000 4.254697 14.998033 -1.412635 -1.593855 2.014723 -19.074657 -2.222957 2.797147 1.157038 -46.454521 -0.136798 14.929434 -23.738080 27.566942 12.318482 0.000000 0.000000 0.000000 
